<mxfile host="drawio-plugin" modified="2022-10-17T20:09:46.735Z" agent="5.0 (Macintosh; Intel Mac OS X 12_5_1) AppleWebKit/537.36 (KHTML, like Gecko) Chrome/89.0.4389.114 Safari/537.36" etag="GtA6SbbuOCvz0gtT4JLr" version="15.5.4" type="embed"><diagram id="jTEcTSZl6hROBgbXp9CA" name="Page-1"><mxGraphModel dx="680" dy="654" grid="1" gridSize="10" guides="1" tooltips="1" connect="1" arrows="1" fold="1" page="1" pageScale="1" pageWidth="827" pageHeight="1169" math="0" shadow="0"><root><mxCell id="0"/><mxCell id="1" parent="0"/><mxCell id="2" value="" style="pointerEvents=1;verticalLabelPosition=bottom;shadow=0;dashed=0;align=center;html=1;verticalAlign=top;shape=mxgraph.electrical.resistors.resistor_2;sketch=1;" parent="1" vertex="1"><mxGeometry x="160" y="110" width="100" height="20" as="geometry"/></mxCell><mxCell id="3" value="" style="pointerEvents=1;verticalLabelPosition=bottom;shadow=0;dashed=0;align=center;html=1;verticalAlign=top;shape=mxgraph.electrical.capacitors.capacitor_1;sketch=1;" parent="1" vertex="1"><mxGeometry x="260" y="90" width="100" height="60" as="geometry"/></mxCell><mxCell id="4" value="" style="pointerEvents=1;verticalLabelPosition=bottom;shadow=0;dashed=0;align=center;html=1;verticalAlign=top;shape=mxgraph.electrical.inductors.inductor_3;direction=west;sketch=1;" parent="1" vertex="1"><mxGeometry x="130" y="330" width="100" height="8" as="geometry"/></mxCell><mxCell id="5" value="" style="pointerEvents=1;verticalLabelPosition=bottom;shadow=0;dashed=0;align=center;html=1;verticalAlign=top;shape=mxgraph.electrical.signal_sources.source;aspect=fixed;points=[[0.5,0,0],[1,0.5,0],[0.5,1,0],[0,0.5,0]];elSignalType=ac;sketch=1;" parent="1" vertex="1"><mxGeometry x="80" y="200" width="60" height="60" as="geometry"/></mxCell><mxCell id="16" value="" style="verticalLabelPosition=bottom;shadow=0;dashed=0;align=center;html=1;verticalAlign=top;shape=mxgraph.electrical.thermionic_devices.triode;sketch=1;" parent="1" vertex="1"><mxGeometry x="380" y="260" width="70" height="77" as="geometry"/></mxCell><mxCell id="25" value="" style="endArrow=none;html=1;entryX=1;entryY=0.5;entryDx=0;entryDy=0;entryPerimeter=0;exitX=0.5;exitY=0;exitDx=0;exitDy=0;exitPerimeter=0;edgeStyle=orthogonalEdgeStyle;sketch=1;" parent="1" source="16" target="3" edge="1"><mxGeometry width="50" height="50" relative="1" as="geometry"><mxPoint x="520" y="380" as="sourcePoint"/><mxPoint x="570" y="330" as="targetPoint"/></mxGeometry></mxCell><mxCell id="27" value="" style="endArrow=none;html=1;exitX=1;exitY=1;exitDx=0;exitDy=0;exitPerimeter=0;entryX=0.5;entryY=1;entryDx=0;entryDy=0;entryPerimeter=0;edgeStyle=elbowEdgeStyle;sketch=1;" parent="1" source="4" target="5" edge="1"><mxGeometry width="50" height="50" relative="1" as="geometry"><mxPoint x="520" y="380" as="sourcePoint"/><mxPoint x="570" y="330" as="targetPoint"/><Array as="points"><mxPoint x="110" y="300"/></Array></mxGeometry></mxCell><mxCell id="28" value="" style="endArrow=none;html=1;entryX=0;entryY=0.5;entryDx=0;entryDy=0;entryPerimeter=0;exitX=0.5;exitY=0;exitDx=0;exitDy=0;exitPerimeter=0;edgeStyle=orthogonalEdgeStyle;sketch=1;" parent="1" source="5" target="2" edge="1"><mxGeometry width="50" height="50" relative="1" as="geometry"><mxPoint x="80" y="170" as="sourcePoint"/><mxPoint x="130" y="120" as="targetPoint"/></mxGeometry></mxCell><mxCell id="29" value="" style="endArrow=none;html=1;entryX=0.36;entryY=1;entryDx=0;entryDy=0;entryPerimeter=0;exitX=0;exitY=1;exitDx=0;exitDy=0;exitPerimeter=0;edgeStyle=elbowEdgeStyle;sketch=1;" parent="1" source="4" target="16" edge="1"><mxGeometry width="50" height="50" relative="1" as="geometry"><mxPoint x="520" y="340" as="sourcePoint"/><mxPoint x="570" y="290" as="targetPoint"/></mxGeometry></mxCell></root></mxGraphModel></diagram></mxfile>